<?xml version="1.0" encoding="UTF-8"?>
<svg xmlns="http://www.w3.org/2000/svg" baseProfile="tiny" version="1.2" xmlns:i="http://ns.adobe.com/AdobeIllustrator/10.0/" viewBox="0 0 64 64">
  <g>
    <g id="Layer_1">
      <path d="M380.9,70.2c0,9.5-10.3,17.3-23.1,17.3s-23.1-7.7-23.1-17.3,10.3-17.3,23.1-17.3c12.8,0,23.1,7.8,23.1,17.3" fill="#ffdea1"/>
      <line x1="375.9" y1="69.8" x2="383.1" y2="68.2" fill="none" stroke="#000" stroke-miterlimit="10" stroke-width="1.1"/>
      <path d="M368.3,83.2s5.8-9.1-.9-21.2" fill="none" stroke="#000" stroke-miterlimit="10" stroke-width="1.1"/>
      <path d="M358.5,77.7s2.5-9.1-3-19.1" fill="none" stroke="#000" stroke-miterlimit="10" stroke-width="1.1"/>
      <path d="M344.7,84.4s5-8.5-1.5-25.7" fill="none" stroke="#000" stroke-miterlimit="10" stroke-width="1.1"/>
      <path d="M333.6,62.6s-1.6-9.9-8.3-15.5" fill="none" stroke="#000" stroke-miterlimit="10" stroke-width="1.1"/>
      <path d="M337.8,60.4s1.6-10.9-1.8-18" fill="none" stroke="#000" stroke-miterlimit="10" stroke-width="1.1"/>
      <path d="M370.4,93c-.1,0,0-4.2-3-9.4" fill="none" stroke="#000" stroke-miterlimit="10" stroke-width="1.1"/>
      <path d="M350.7,55.3c-1.4-4.5-1.9-9.1.1-13.6.7-1.5,1.6-2.9,3-3.8,1.4-.9,3.2-1.1,4.7-.3,1.8,1.1,2.4,3.5,2.2,5.6-.1,1.1-.4,2.5-1.1,3.4-.9,1.1-2.8,1.4-3.4-.3-.3-.8,0-1.7.4-2.4,1.1-1.8,3.3-2.7,5.4-2.4,1,0,2,.6,2.5,1.5.4.9.2,1.9-.1,2.8-1,3.1-3.2,5.7-5.3,8.1" fill="none" stroke="#000" stroke-miterlimit="10" stroke-width="1.1"/>
      <path d="M352.4,84.6s-12.9,1.3-20.2-5.7c-7.4-7-1.7-15.4,3.9-17.8,5.6-2.4,17.3-6.4,31.9,1.2,14.6,7.6,6.9,17.6,2.2,19.9-4.7,2.2-7.7,4.5-11.1,2.5-3.5-1.9,1.3-6.6,3.3-2.1,1.9,4.5,1.3,11.5,1.3,11.5" fill="none" stroke="#000" stroke-miterlimit="10" stroke-width="1.1"/>
      <path d="M337.3,69.4c0,.7-.5,1.2-1.2,1.2s-1.2-.5-1.2-1.2.5-1.2,1.2-1.2c.6,0,1.2.5,1.2,1.2"/>
      <g>
        <path d="M33.4,53.7c-9.5-.8-16.3-11.7-15.3-24.4,1.1-12.7,9.6-22.3,19.1-21.5s16.3,11.7,15.3,24.4c-1.1,12.7-9.6,22.3-19.1,21.5" fill="#e7e7ca"/>
        <polygon points="23.3 31.1 22.7 24.9 23.8 24.8 24.2 28.9 28 25.9 28.7 26.8 23.3 31.1"/>
        <path d="M10.3,55.3s0,0-.1,0c-1.5,0-2.6-.9-3.3-2.5-.2-.5-.3-1-.4-1.5-.9-.3-1.6-1-2.2-2.1-1.9-3.4,2.2-6.8,5.9-9.3,3.1-2.1,4-6.9,4-6.9l1.1.2c0,.2-1,5.3-4.4,7.7-3.3,2.3-7,5.2-5.5,7.9.3.6.7,1.1,1.1,1.3.1-1.9,1.3-3.5,2.4-4.4,1.4-1.1,2.8-1.4,3.7-.8.7.5.9,1.1.9,1.6,0,1-.7,2.2-2.2,3.5-.5.4-1.9,1.6-3.6,1.6,0,.3.2.6.3.9.5,1.2,1.3,1.8,2.3,1.8,2.5,0,6.5-3.1,10.1-10.4l1,.5c-3.3,6.7-7.6,11-11,11ZM7.5,50.4c1.1,0,2.2-.6,3-1.3,1.2-1,1.8-2,1.8-2.6,0-.2,0-.4-.5-.7-.3-.2-1.3,0-2.3.8-1.1.8-2,2.2-2,3.9Z"/>
        <path d="M46.3,17.8l-.6-.9c1.3-.9,4.5-3.6,4.7-5.8,0-.7-.2-1.2-.8-1.8-.6-.5-1.1-.7-1.8-.5-2.2.5-4.4,4.4-5,5.8l-1-.5c.1-.2,2.7-5.8,5.8-6.5,1-.2,1.9,0,2.7.8.9.7,1.3,1.6,1.2,2.7-.2,3.2-5,6.5-5.2,6.6Z"/>
        <path d="M22,14.7c-.3-.7-2.7-7.1-1.4-9.6.3-.5.7-.9,1.3-1,.7-.1,1.4,0,1.9.4,1.4,1,1.8,3.6,2.2,6.1.1.9.3,1.7.4,2.4l-1.1.2c-.2-.8-.3-1.6-.4-2.5-.3-2.2-.7-4.6-1.7-5.3-.3-.2-.6-.3-1.1-.2-.2,0-.4.2-.5.4-.9,1.7.7,6.9,1.5,8.7l-1.1.4Z"/>
        <path d="M37.9,60l-1-.4c1-2.3,2.3-6.3,1.7-7.4l1-.5c1,1.9-1.2,7.3-1.7,8.4Z"/>
        <path d="M44,58.5s-.2-2.8-1.1-5l-.7-1.9c-2.3.2-13.5.4-22.1-8-10-9.8-6.1-22.2-1.8-26.7,4.3-4.4,16.4-9.4,26.2-1.6,9.5,7.7,14.5,16.7,15.3,22.2,1,6.5.4,9.7-2.3,11.1-.9.5-1.9.5-2.8.1-.7-.3-1.4-.8-2-1.6-.3.2-.6.4-1,.5-1.8.6-3.4.2-4.5-1.1-3-3.3-2.8-11.2-1.2-14.8l1,.5c-1.6,3.6-1.4,11,1,13.6.9,1,2,1.2,3.3.8.2,0,.5-.2.7-.3-.5-.8-.9-1.7-1.2-2.8-.4-1.4-1-3.6-.4-5.5.3-1.1,1-1.8,1.8-2,.4,0,1.2,0,2,.9,1.4,1.6,1.8,4.1,1.2,6.5-.4,1.3-1,2.4-1.8,3.2.5.6,1,1,1.5,1.2.6.3,1.3.2,1.9,0,2.2-1.1,2.7-4,1.7-9.9-.8-5.3-5.6-13.9-14.9-21.5-9.2-7.3-20.6-2.6-24.6,1.6-4,4.2-7.6,15.9,1.8,25.1,9.2,9,21.5,7.7,21.6,7.6h.4c0,0,1.1,2.7,1.1,2.7.9,2.4,1.1,5.2,1.1,5.4h-1.1ZM52.4,37s0,0-.1,0c-.4,0-.7.6-.9,1.2-.5,1.7,0,3.6.4,4.9.3.9.6,1.7,1,2.4.6-.6,1.1-1.5,1.3-2.5.6-2,.2-4.1-.9-5.4-.2-.2-.5-.5-.8-.5Z"/>
        <path d="M20.5,24.3c0,.7-.5,1.2-1.2,1.2s-1.2-.5-1.2-1.2.5-1.2,1.2-1.2,1.2.5,1.2,1.2"/>
        <path d="M35.3,25.5c0,.7-.5,1.2-1.2,1.2s-1.2-.5-1.2-1.2.5-1.2,1.2-1.2c.7,0,1.2.5,1.2,1.2"/>
      </g>
    </g>
  </g>
</svg>